# File created by Blade
# Date/Time:  Wed Jan 21 17:16:23 2015
# Frame Rate: 120.000 fps
#------------------------------------------------------
:FULLY-SPECIFIED
:DEGREES
1518
root 21.092434 5.212027 -15.757173 -185.070871 -7.318978 -206.585189
Spine 10.812699 4.070694 -41.452677
Head -17.292979 -20.486923 22.693350
LeftShoulder 6.640419 -28.716465 -1.613728
LeftArm 8.714516 66.491449 -64.136291
LeftForeArm 27.703790 0.000000 35.687656
LeftHand 4.734046 0.000000 14.204668
LeftHandThumb1 -26.253704 0.000000 33.147579
RightShoulder 2.211994 -2.588460 12.024904
RightArm 51.323918 -42.916660 43.262605
RightForeArm -45.772663 -0.000000 34.860699
RightHand 0.332202 -0.000000 -11.674941
RightHandThumb1 -24.326973 -0.000000 -32.862282
LeftUpLeg -13.545005 26.819417 35.610975
LeftLeg 149.918227 -0.000000 -0.000000
LeftFoot 48.188259 3.284237 19.710329
LeftToeBase 20.939932 -0.000000 -0.000000
RightUpLeg -107.430514 -6.929602 57.785331
RightLeg 126.035599 -0.000000 -0.000000
RightFoot 30.550759 -21.489567 6.615171
RightToeBase 33.778994 -0.000000 -0.000000
1519
root 21.093292 5.211912 -15.758615 -185.071682 -7.304266 -206.584609
Spine 10.805975 4.081244 -41.448549
Head -17.233615 -20.538729 22.678607
LeftShoulder 6.632590 -28.737014 -1.611552
LeftArm 8.707542 66.530143 -64.153647
LeftForeArm 27.672722 -0.000000 35.673451
LeftHand 4.685041 -0.000000 14.255766
LeftHandThumb1 -26.253704 0.000000 33.147579
RightShoulder 2.224832 -2.575417 12.012557
RightArm 51.344840 -42.938765 43.247545
RightForeArm -45.733809 -0.000000 34.823674
RightHand 0.322744 -0.000000 -11.728082
RightHandThumb1 -24.326973 -0.000000 -32.862282
LeftUpLeg -13.524774 26.820577 35.623336
LeftLeg 149.916738 -0.000000 -0.000000
LeftFoot 48.192116 3.233449 19.751813
LeftToeBase 20.844150 -0.000000 -0.000000
RightUpLeg -107.414935 -6.916427 57.804067
RightLeg 126.029367 -0.000000 -0.000000
RightFoot 30.544193 -21.557735 6.605753
RightToeBase 33.791509 -0.000000 -0.000000
1520
root 21.093778 5.211814 -15.760869 -185.072610 -7.295248 -206.583068
Spine 10.800837 4.087823 -41.440578
Head -17.161869 -20.558910 22.634746
LeftShoulder 6.623834 -28.737211 -1.616267
LeftArm 8.730127 66.536787 -64.143038
LeftForeArm 27.667233 -0.000000 35.654712
LeftHand 4.669530 -0.000000 14.262515
LeftHandThumb1 -26.253704 0.000000 33.147579
RightShoulder 2.229468 -2.584775 11.999454
RightArm 51.352479 -42.934346 43.257124
RightForeArm -45.721821 -0.000000 34.810189
RightHand 0.332773 -0.000000 -11.725827
RightHandThumb1 -24.326973 -0.000000 -32.862282
LeftUpLeg -13.515905 26.821065 35.634616
LeftLeg 149.915851 -0.000000 -0.000000
LeftFoot 48.121035 3.276987 19.715688
LeftToeBase 21.065955 -0.000000 -0.000000
RightUpLeg -107.401703 -6.910453 57.809777
RightLeg 126.023771 -0.000000 -0.000000
RightFoot 30.547360 -21.571624 6.580190
RightToeBase 33.763539 -0.000000 -0.000000
1521
root 21.094549 5.211772 -15.762705 -185.074278 -7.287660 -206.581829
Spine 10.803047 4.099763 -41.431665
Head -17.111490 -20.568160 22.579584
LeftShoulder 6.615413 -28.746117 -1.621536
LeftArm 8.750806 66.528274 -64.139181
LeftForeArm 27.695108 -0.000000 35.623361
LeftHand 4.708000 -0.000000 14.240760
LeftHandThumb1 -26.253704 0.000000 33.147579
RightShoulder 2.231409 -2.567021 11.988040
RightArm 51.368882 -42.953978 43.239072
RightForeArm -45.691552 -0.000000 34.793231
RightHand 0.352712 -0.000000 -11.736065
RightHandThumb1 -24.326973 -0.000000 -32.862282
LeftUpLeg -13.504281 26.815792 35.646881
LeftLeg 149.909350 -0.000000 -0.000000
LeftFoot 48.102993 3.292323 19.691834
LeftToeBase 21.164176 -0.000000 -0.000000
RightUpLeg -107.388107 -6.911595 57.800210
RightLeg 126.021740 -0.000000 -0.000000
RightFoot 30.556650 -21.527993 6.578120
RightToeBase 33.771147 -0.000000 -0.000000
1522
root 21.095859 5.211255 -15.763863 -185.074207 -7.280856 -206.583346
Spine 10.809244 4.109856 -41.430467
Head -17.077189 -20.618093 22.544760
LeftShoulder 6.609461 -28.767602 -1.614241
LeftArm 8.752777 66.534910 -64.152549
LeftForeArm 27.691363 0.000000 35.601667
LeftHand 4.729480 -0.000000 14.221439
LeftHandThumb1 -26.253704 0.000000 33.147579
RightShoulder 2.229274 -2.555512 11.972055
RightArm 51.391859 -42.967963 43.235244
RightForeArm -45.664218 -0.000000 34.781443
RightHand 0.333642 -0.000000 -11.740792
RightHandThumb1 -24.326973 -0.000000 -32.862282
LeftUpLeg -13.497401 26.816369 35.652469
LeftLeg 149.906569 -0.000000 -0.000000
LeftFoot 48.123229 3.285877 19.711417
LeftToeBase 21.055032 -0.000000 -0.000000
RightUpLeg -107.375833 -6.906345 57.793337
RightLeg 126.019717 -0.000000 -0.000000
RightFoot 30.550980 -21.508929 6.569300
RightToeBase 33.773645 -0.000000 -0.000000
1523
root 21.096788 5.211242 -15.765462 -185.074449 -7.270866 -206.587376
Spine 10.812508 4.125691 -41.429615
Head -17.030120 -20.616380 22.488760
LeftShoulder 6.606683 -28.763556 -1.611232
LeftArm 8.797989 66.524079 -64.122184
LeftForeArm 27.646300 -0.000000 35.587091
LeftHand 4.780727 0.000000 14.125308
LeftHandThumb1 -26.253704 0.000000 33.147579
RightShoulder 2.226376 -2.541980 11.963205
RightArm 51.413812 -42.987971 43.210182
RightForeArm -45.617856 -0.000000 34.782957
RightHand 0.334326 -0.000000 -11.761183
RightHandThumb1 -24.326973 -0.000000 -32.862282
LeftUpLeg -13.481007 26.809904 35.657192
LeftLeg 149.904037 -0.000000 -0.000000
LeftFoot 48.089955 3.257569 19.720888
LeftToeBase 21.090133 -0.000000 -0.000000
RightUpLeg -107.357704 -6.892932 57.813549
RightLeg 126.008806 -0.000000 -0.000000
RightFoot 30.533891 -21.575112 6.504501
RightToeBase 33.752807 -0.000000 -0.000000
